<svg width="297" height="298" viewBox="0 0 297 298" fill="none" xmlns="http://www.w3.org/2000/svg">
<path d="M149 297.014C230.746 297.014 297.015 230.746 297.015 149C297.015 67.2537 230.746 0.985352 149 0.985352C67.2538 0.985352 0.985458 67.2537 0.985458 149C0.985458 230.746 67.2538 297.014 149 297.014Z" fill="#8B8B8B"/>
<path d="M126.509 100.317C126.509 104.596 126.509 123.676 126.509 123.676H109.395V152.238H126.509V230.524H161.662V152.18H185.252C185.252 152.18 187.449 138.477 188.548 123.502C185.483 123.502 161.836 123.502 161.836 123.502C161.836 123.502 161.836 106.908 161.836 103.96C161.836 101.069 165.652 97.137 169.468 97.137C173.226 97.137 181.205 97.137 188.605 97.137C188.605 93.2632 188.605 79.7915 188.605 67.4185C178.719 67.4185 167.502 67.4185 162.587 67.4185C125.641 67.4763 126.509 96.0385 126.509 100.317Z" fill="#161925"/>
</svg>
