<svg width="396" height="396" viewBox="0 0 396 396" fill="none" xmlns="http://www.w3.org/2000/svg">
<g clip-path="url(#clip0_141_40)">
<path d="M198 396.242C307.486 396.242 396.242 307.486 396.242 198C396.242 88.5139 307.486 -0.242188 198 -0.242188C88.5139 -0.242188 -0.242188 88.5139 -0.242188 198C-0.242188 307.486 88.5139 396.242 198 396.242Z" fill="#8B8B8B"/>
<path d="M395.766 211.48C395.687 211.401 395.608 211.322 395.529 211.242C368.409 184.202 341.289 157.083 314.249 129.963C311.632 127.346 308.54 126.078 304.892 126.078C299.659 126.157 294.346 126.078 289.112 126.078C258.9 126.078 228.767 126.078 198.555 126.078C198.555 126.157 198.555 126.157 198.555 126.236C194.114 126.236 189.674 126.236 185.233 126.236C167.629 126.236 149.946 126.316 132.342 126.316C119.179 126.316 105.936 126.316 92.773 126.395C92.2973 126.395 91.7422 126.395 91.2664 126.395C88.2531 126.553 85.7156 127.664 83.5746 129.646C80.8785 132.183 79.6891 135.355 79.6891 139.003C79.7684 154.704 79.7684 170.484 79.7684 186.185C79.7684 209.815 79.8476 233.366 79.7684 256.997C79.7684 261.437 81.1957 265.006 84.3676 268.178C116.8 300.531 149.232 333.042 181.665 365.396C191.498 375.228 201.41 385.141 211.243 395.053C211.48 395.291 211.718 395.528 211.956 395.687C310.443 388.867 389.105 310.046 395.766 211.48Z" fill="#8B8B8B"/>
<path d="M316.787 137.893C316.787 131.153 311.315 125.76 304.575 125.76L91.1871 126.078C87.936 126.078 84.8434 127.346 82.5438 129.646C80.2442 131.946 78.9754 135.038 78.9754 138.289L79.134 258.186C79.134 261.437 80.4027 264.53 82.7024 266.83C85.002 269.129 88.0945 270.398 91.3457 270.398L304.734 270.081C311.474 270.081 316.945 264.609 316.866 257.869L316.787 137.893ZM237.411 214.969L292.68 257.869L103.161 258.107L158.748 214.969C161.444 212.908 161.92 209.102 159.858 206.405C157.796 203.709 153.99 203.234 151.294 205.295L91.425 251.763L91.2664 143.761L194.59 215.128C195.621 215.842 196.811 216.238 198.079 216.238C199.269 216.238 200.538 215.842 201.568 215.128L304.654 143.444L304.813 251.763L244.944 205.295C242.248 203.234 238.441 203.709 236.38 206.405C234.239 209.022 234.794 212.908 237.411 214.969ZM104.588 138.21L291.174 137.972L198 202.678L104.588 138.21Z" fill="#161925"/>
</g>
<defs>
<clipPath id="clip0_141_40">
<rect width="396" height="396" fill="white"/>
</clipPath>
</defs>
</svg>
