<svg width="308" height="313" viewBox="0 0 308 313" fill="none" xmlns="http://www.w3.org/2000/svg">
<rect x="38" y="60" width="224" height="191" fill="#161925"/>
<path d="M154.5 2C69.7302 2 1 70.7304 1 155.5C1 240.268 69.7302 309 154.5 309C239.269 309 307.998 240.268 307.998 155.5C307.999 70.7304 239.269 2 154.5 2ZM235.558 225.974L223.267 238.266C221.073 240.458 214.648 241.825 214.442 241.825C175.56 242.164 138.123 226.892 110.617 199.382C83.0349 171.785 67.7448 134.214 68.1554 95.2018C68.1554 95.1841 69.5625 88.943 71.7549 86.7715L84.0447 74.4798C88.542 69.9616 97.181 67.9199 103.233 69.9445L105.818 70.8069C111.852 72.8297 118.188 79.5017 119.855 85.6485L126.037 108.339C127.704 114.503 125.456 123.273 120.96 127.771L112.753 135.978C120.81 165.806 144.214 189.213 174.046 197.29L182.249 189.081C186.767 184.562 195.534 182.316 201.685 183.98L224.373 190.185C230.521 191.874 237.191 198.17 239.213 204.202L240.076 206.824C242.08 212.859 240.054 221.496 235.558 225.974Z" fill="#8B8B8B"/>
</svg>
