<svg width="212" height="218" viewBox="0 0 212 218" fill="none" xmlns="http://www.w3.org/2000/svg">
<rect x="29.5" y="55.5" width="151" height="113" fill="#161925" stroke="black"/>
<path d="M106 3.40625C47.4577 3.40625 0 50.682 0 109C0 167.318 47.4577 214.594 106 214.594C164.542 214.594 212 167.318 212 109C212 50.682 164.542 3.40625 106 3.40625ZM155.133 75.2185C153.538 91.9155 146.635 132.434 143.122 151.135C141.637 159.048 138.71 161.702 135.878 161.961C129.723 162.525 125.048 157.909 119.086 154.015C109.757 147.923 104.487 144.131 95.4303 138.186C84.965 131.316 91.7494 127.541 97.7136 121.368C99.2746 119.753 126.396 95.1779 126.921 92.9485C126.987 92.6696 127.05 91.6286 126.428 91.0819C125.807 90.5351 124.894 90.7204 124.233 90.869C123.298 91.0807 108.394 100.894 79.5218 120.308C75.2918 123.202 71.4601 124.612 68.0268 124.538C64.242 124.457 56.9618 122.407 51.5493 120.654C44.9111 118.504 39.635 117.368 40.0945 113.717C40.3339 111.815 42.9625 109.871 47.9804 107.884C78.8817 94.4725 99.4873 85.6304 109.797 81.3579C139.234 69.1605 145.351 67.0418 149.338 66.9711C150.215 66.9567 152.176 67.173 153.446 68.1995C154.29 68.9308 154.829 69.9513 154.954 71.0591C155.17 72.4346 155.229 73.8298 155.133 75.2185V75.2185Z" fill="#8B8B8B"/>
</svg>
