<svg width="282" height="282" viewBox="0 0 282 282" fill="none" xmlns="http://www.w3.org/2000/svg">
<rect x="52" y="58" width="178" height="165" fill="#161925"/>
<path fill-rule="evenodd" clip-rule="evenodd" d="M0 141C0 63.1281 63.1281 0 141 0C218.872 0 282 63.1281 282 141C282 218.872 218.872 282 141 282C63.1281 282 0 218.872 0 141ZM136.777 114.607L137.073 119.486L132.142 118.888C114.192 116.598 98.5102 108.831 85.1951 95.7878L78.6862 89.3159L77.0095 94.0952C73.4586 104.749 75.727 116.001 83.1242 123.568C87.0693 127.75 86.1815 128.347 79.3765 125.858C77.0095 125.061 74.938 124.464 74.7412 124.763C74.0508 125.459 76.4179 134.52 78.2914 138.105C80.8559 143.083 86.0828 147.962 91.8033 150.85L96.6361 153.14L90.9156 153.239C85.3925 153.239 85.1951 153.339 85.7873 155.43C87.7596 161.902 95.551 168.772 104.23 171.76L110.345 173.851L105.019 177.037C97.129 181.617 87.8583 184.206 78.5875 184.405C74.149 184.504 70.5 184.903 70.5 185.202C70.5 186.197 82.5326 191.773 89.535 193.964C110.542 200.436 135.495 197.648 154.234 186.595C167.549 178.729 180.863 163.097 187.076 147.962C190.43 139.897 193.783 125.161 193.783 118.092C193.783 113.511 194.079 112.914 199.602 107.437C202.857 104.251 205.914 100.766 206.506 99.7704C207.492 97.8787 207.394 97.8787 202.364 99.5713C193.981 102.559 192.797 102.16 196.939 97.6795C199.997 94.4935 203.646 88.7184 203.646 87.0258C203.646 86.7267 202.166 87.2249 200.49 88.1209C198.715 89.1167 194.77 90.6101 191.811 91.5066L186.485 93.1992L181.652 89.9134C178.99 88.1209 175.241 86.1298 173.269 85.5324C168.239 84.1382 160.546 84.3374 156.009 85.9307C143.681 90.411 135.889 101.961 136.777 114.607Z" fill="#8B8B8B"/>
</svg>
