<svg width="272" height="272" viewBox="0 0 272 272" fill="none" xmlns="http://www.w3.org/2000/svg">
<rect x="50" y="45" width="171" height="183" fill="#161925"/>
<path fill-rule="evenodd" clip-rule="evenodd" d="M136 3.8147e-06C211.111 3.8147e-06 272 60.8893 272 136C272 211.111 211.111 272 136 272C60.8893 272 0 211.111 0 136C0 60.8893 60.8893 3.8147e-06 136 3.8147e-06ZM144.145 55.3981C153.393 56.5523 160.866 58.7798 169.065 62.7791C177.129 66.725 182.29 70.4557 189.119 77.2464C195.517 83.6615 199.065 88.5202 202.828 96.0624C208.07 106.584 211.054 119.092 211.565 132.862C211.753 137.559 211.619 138.606 210.543 139.948C208.5 142.552 204.011 142.122 202.479 139.196C201.995 138.23 201.86 137.398 201.699 133.64C201.43 127.869 201.028 124.138 200.221 119.683C197.049 102.209 188.661 88.2516 175.274 78.2397C164.118 69.8654 152.586 65.7853 137.479 64.8997C132.371 64.6044 131.484 64.4169 130.328 63.531C128.177 61.8399 128.07 57.8676 130.14 56.0156C131.403 54.8612 132.29 54.7001 136.672 54.8343C138.957 54.9148 142.317 55.1834 144.145 55.3981ZM82.6933 58.297C83.6344 58.619 85.086 59.3705 85.9195 59.9074C91.0267 63.2895 105.247 81.4606 109.898 90.5331C112.559 95.7133 113.446 99.5516 112.613 102.397C111.752 105.457 110.328 107.067 103.957 112.194C101.403 114.261 99.0104 116.381 98.6344 116.945C97.6665 118.341 96.8867 121.078 96.8867 123.011C96.914 127.493 99.8173 135.626 103.635 141.88C106.591 146.739 111.887 152.966 117.129 157.744C123.285 163.38 128.715 167.218 134.844 170.252C142.72 174.17 147.532 175.163 151.054 173.526C151.941 173.124 152.882 172.587 153.178 172.345C153.446 172.104 155.516 169.58 157.775 166.789C162.129 161.313 163.124 160.428 166.108 159.408C169.898 158.12 173.769 158.468 177.667 160.454C180.624 161.985 187.076 165.984 191.242 168.883C196.726 172.721 208.447 182.277 210.033 184.183C212.829 187.618 213.313 192.02 211.43 196.878C209.441 202.004 201.699 211.614 196.296 215.721C191.404 219.425 187.936 220.847 183.366 221.062C179.603 221.25 178.044 220.928 173.232 218.941C135.49 203.4 105.355 180.21 81.4297 148.349C68.9299 131.708 59.4136 114.449 52.9079 96.5458C49.1178 86.1046 48.9299 81.5681 52.0478 76.2267C53.3922 73.9722 59.1179 68.3892 63.2845 65.2758C70.2203 60.1221 73.4191 58.2163 75.9729 57.6796C77.7201 57.3037 80.7576 57.5991 82.6933 58.297ZM146 74.8577C162.318 77.2464 174.952 84.8161 183.231 97.1092C187.882 104.034 190.785 112.167 191.78 120.89C192.129 124.085 192.129 129.909 191.753 130.876C191.403 131.788 190.275 133.023 189.307 133.532C188.258 134.069 186.027 134.016 184.791 133.372C182.721 132.325 182.103 130.661 182.103 126.151C182.103 119.2 180.301 111.872 177.183 106.181C173.635 99.6858 168.474 94.3178 162.183 90.5867C156.78 87.3658 148.796 84.9771 141.511 84.3867C138.876 84.1717 137.425 83.6349 136.43 82.4807C134.898 80.7359 134.737 78.374 136.027 76.4148C137.425 74.2406 139.575 73.8913 146 74.8577ZM151.726 95.1228C157.022 96.2502 161.081 98.2634 164.549 101.511C169.011 105.725 171.457 110.825 172.532 118.153C173.258 122.93 172.963 124.809 171.269 126.366C169.683 127.815 166.753 127.869 164.979 126.5C163.688 125.534 163.285 124.514 162.989 121.749C162.64 118.072 161.995 115.495 160.893 113.106C158.527 108.034 154.36 105.403 147.317 104.544C144.011 104.141 143.016 103.766 141.941 102.504C139.979 100.169 140.731 96.3845 143.446 94.9887C144.468 94.4788 144.898 94.4251 147.156 94.5593C148.554 94.6398 150.624 94.8811 151.726 95.1228Z" fill="#8B8B8B"/>
</svg>
